<svg xmlns="http://www.w3.org/2000/svg" width="24" height="24" fill="currentColor" class="bi bi-building-check" viewBox="0 0 16 16">
  <path d="M13 2a1 1 0 0 1 1 1v4.5a.5.5 0 0 1-1 0V3H3v12h4v-2.5a.5.5 0 0 1 .5-.5H9v3H3a1 1 0 0 1-1-1V2a1 1 0 0 1 1-1h10z"></path>
  <path d="M5.5 2.5a.5.5 0 0 0-1 0v1a.5.5 0 0 0 1 0v-1zm2 .5a.5.5 0 0 1 .5-.5h1a.5.5 0 0 1 .5.5v1a.5.5 0 0 1-.5.5h-1a.5.5 0 0 1-.5-.5zM10.5 2a.5.5 0 0 0-.5.5v1a.5.5 0 0 0 .5.5h1a.5.5 0 0 0 .5-.5v-1a.5.5 0 0 0-.5-.5zM4.5 5a.5.5 0 0 1 .5-.5h1a.5.5 0 0 1 .5.5v1a.5.5 0 0 1-.5.5h-1a.5.5 0 0 1-.5-.5zM7.5 5a.5.5 0 0 0-.5.5v1a.5.5 0 0 0 .5.5h1a.5.5 0 0 0 .5-.5v-1a.5.5 0 0 0-.5-.5zM10 5a.5.5 0 0 1 .5-.5h1a.5.5 0 0 1 .5.5v1a.5.5 0 0 1-.5.5h-1a.5.5 0 0 1-.5-.5zM5.5 8a.5.5 0 0 0-.5.5v1a.5.5 0 0 0 .5.5h1a.5.5 0 0 0 .5-.5v-1a.5.5 0 0 0-.5-.5zm2.5.5a.5.5 0 0 1 .5-.5h.905a5.57 5.57 0 0 0-.88 1H8a.5.5 0 0 1-.5-.5zM15.854 10.146a.5.5 0 0 1 0 .708l-3 3a.5.5 0 0 1-.708 0l-1.5-1.5a.5.5 0 0 1 .708-.708L12.5 12.793l2.646-2.647a.5.5 0 0 1 .708 0"></path>
</svg>
